<?xml version="1.0" standalone="no"?>
<!DOCTYPE svg PUBLIC "-//W3C//DTD SVG 20010904//EN"
 "http://www.w3.org/TR/2001/REC-SVG-20010904/DTD/svg10.dtd">
<svg version="1.0" xmlns="http://www.w3.org/2000/svg"
 width="189.000000pt" height="267.000000pt" viewBox="0 0 189.000000 267.000000"
 preserveAspectRatio="xMidYMid meet">

<g transform="translate(0.000000,267.000000) scale(0.100000,-0.100000)"
fill="#000000" stroke="none">
<path d="M855 1981 c-86 -14 -138 -32 -219 -74 -152 -79 -275 -235 -322 -407
-23 -87 -23 -243 0 -329 62 -229 241 -405 471 -466 78 -21 241 -21 320 0 396
103 600 539 426 910 -80 170 -251 310 -431 353 -65 16 -187 22 -245 13z m51
-93 c23 -44 105 -138 120 -138 7 0 19 9 27 21 13 18 18 19 37 7 12 -7 44 -44
72 -81 47 -63 54 -68 82 -64 22 3 37 -1 53 -16 21 -19 24 -19 41 -4 25 23 39
21 53 -4 6 -12 29 -41 50 -64 l39 -42 -76 -7 c-91 -7 -246 3 -256 17 -4 7 -16
6 -35 -2 -21 -8 -123 -11 -372 -9 l-344 2 44 39 c64 56 100 77 135 77 31 0 61
24 83 68 9 17 17 21 36 16 21 -5 27 -1 36 22 5 16 26 42 45 57 19 16 43 46 54
67 18 35 46 70 55 70 3 0 12 -15 21 -32z m-476 -533 l0 -65 56 0 c49 0 55 -2
44 -15 -9 -11 -32 -15 -81 -15 l-69 0 0 66 c0 52 4 70 18 80 29 22 32 17 32
-51z m272 28 c13 -12 18 -30 18 -70 0 -46 -2 -53 -20 -53 -13 0 -20 7 -20 20
0 17 -7 20 -40 20 -32 0 -40 -4 -40 -18 0 -21 -18 -42 -37 -42 -20 0 -17 118
4 142 22 24 109 25 135 1z m207 -19 c21 -35 21 -37 3 -68 -17 -30 -21 -31 -90
-34 l-72 -3 0 71 0 70 69 0 c69 0 69 0 90 -36z m193 19 c13 -12 18 -30 18 -70
0 -46 -2 -53 -20 -53 -13 0 -20 7 -20 20 0 17 -7 20 -40 20 -32 0 -40 -4 -40
-18 0 -21 -18 -42 -37 -42 -20 0 -17 118 4 142 22 24 109 25 135 1z m88 -20
l0 -37 38 37 c22 22 48 37 62 37 l24 0 -27 -28 -27 -28 25 -24 c31 -29 33 -60
5 -60 -11 0 -20 5 -20 12 0 6 -8 20 -17 30 -16 18 -17 18 -40 -4 -13 -12 -23
-27 -23 -34 0 -10 -21 -24 -36 -24 -2 0 -4 36 -4 80 0 73 2 80 20 80 16 0 20
-7 20 -37z m190 7 c0 -28 2 -30 40 -30 38 0 40 2 40 30 0 25 4 30 25 30 24 0
25 -2 25 -70 0 -68 -1 -70 -25 -70 -20 0 -25 5 -25 25 0 23 -4 25 -40 25 -37
0 -40 -2 -40 -29 0 -24 -14 -41 -36 -41 -2 0 -4 36 -4 80 0 73 2 80 20 80 16
0 20 -7 20 -30z m75 -360 l-49 -50 -68 67 -68 67 51 52 50 51 66 -69 67 -68
-49 -50z m-928 95 c-1 -13 -6 -27 -10 -31 -4 -4 -7 -12 -7 -18 0 -6 5 -5 12 2
7 7 16 12 21 12 5 0 -2 -10 -17 -21 -15 -12 -30 -19 -33 -15 -4 3 -1 6 5 6 6
0 9 6 6 13 -3 8 -14 13 -26 13 -11 -1 -22 5 -24 12 -1 7 0 8 3 2 2 -5 11 -10
19 -10 10 0 12 5 8 13 -5 7 0 6 11 -3 17 -14 18 -13 12 3 -3 9 -2 17 3 17 6 0
10 7 10 15 0 8 2 15 5 15 3 0 4 -11 2 -25z m748 -123 c16 -50 26 -94 23 -97
-13 -13 -122 -45 -128 -38 -4 4 -23 48 -43 96 l-36 88 22 9 c72 31 123 47 128
42 4 -4 19 -49 34 -100z m-468 54 c7 -6 -51 -186 -59 -186 -6 0 -35 7 -65 16
-49 14 -54 18 -48 37 6 18 29 106 41 153 2 9 20 8 66 -3 34 -8 64 -16 65 -17z
m148 -64 c5 -13 2 -13 -15 3 -18 16 -20 16 -20 2 0 -10 -4 -17 -10 -17 -13 0
-13 13 1 27 14 14 35 7 44 -15z m-8 -29 c-4 -3 1 -12 10 -18 15 -11 15 -15 4
-29 -10 -12 -17 -13 -27 -6 -9 8 -14 7 -17 -7 -2 -10 -2 -7 0 7 2 14 4 33 4
43 0 9 7 17 16 17 9 0 13 -3 10 -7z"/>
<path d="M600 1345 c0 -11 11 -15 40 -15 29 0 40 4 40 15 0 11 -11 15 -40 15
-29 0 -40 -4 -40 -15z"/>
<path d="M790 1325 c0 -33 2 -35 35 -35 24 0 37 6 45 19 17 33 2 51 -41 51
-38 0 -39 -1 -39 -35z"/>
<path d="M1000 1345 c0 -11 11 -15 40 -15 29 0 40 4 40 15 0 11 -11 15 -40 15
-29 0 -40 -4 -40 -15z"/>
<path d="M1334 1126 c-9 -23 20 -48 36 -33 10 10 11 7 5 -10 -5 -18 -2 -23 12
-24 16 0 16 -1 -2 -9 -19 -8 -19 -9 2 -9 12 -1 25 3 28 9 7 12 -19 49 -52 74
-20 15 -24 15 -29 2z"/>
<path d="M1386 1131 c-3 -5 1 -11 9 -14 9 -4 12 -1 8 9 -6 16 -10 17 -17 5z"/>
<path d="M1431 1024 c-13 -13 -19 -24 -14 -24 12 0 48 38 42 44 -2 3 -15 -6
-28 -20z"/>
<path d="M1190 1019 c24 -10 24 -11 6 -25 -11 -8 -26 -14 -34 -14 -26 0 -8
-35 21 -38 20 -3 26 0 21 12 -4 9 0 14 10 12 25 -4 32 -17 13 -27 -18 -10 -24
-39 -8 -39 14 0 41 30 41 45 0 8 -10 21 -22 29 -19 14 -19 16 -5 22 9 3 17 10
17 15 0 4 -6 6 -14 3 -8 -3 -17 -1 -21 5 -3 6 -16 11 -28 10 -21 0 -21 -1 3
-10z"/>
<path d="M1230 891 c-50 -21 -69 -45 -23 -32 54 17 83 31 83 41 0 13 -7 12
-60 -9z"/>
<path d="M935 900 c4 -6 11 -8 16 -5 14 9 11 15 -7 15 -8 0 -12 -5 -9 -10z"/>
</g>
</svg>
